<svg xmlns="http://www.w3.org/2000/svg" viewBox="0 0 104 95" width="104" height="95">
	<style>
		tspan { white-space:pre }
		.shp0 { fill: #939393 } 
	</style>
	<g id="Search 2">
		<g id="Search">
			<path id="ic-cart" class="shp0" d="M43.4 76.94C38.38 76.94 34.3 80.99 34.3 85.97C34.3 90.95 38.38 94.99 43.4 94.99C48.42 94.99 52.5 90.95 52.5 85.97C52.5 80.99 48.42 76.94 43.4 76.94ZM43.4 89.95C41.19 89.95 39.38 88.16 39.38 85.97C39.38 83.77 41.19 81.98 43.4 81.98C45.62 81.98 47.42 83.77 47.42 85.97C47.42 88.16 45.62 89.95 43.4 89.95ZM75.32 76.94C70.3 76.94 66.22 80.99 66.22 85.97C66.22 90.95 70.3 94.99 75.32 94.99C80.34 94.99 84.42 90.95 84.42 85.97C84.42 80.99 80.34 76.94 75.32 76.94ZM75.32 89.95C73.1 89.95 71.3 88.16 71.3 85.97C71.3 83.77 73.1 81.98 75.32 81.98C77.53 81.98 79.34 83.77 79.34 85.97C79.34 88.16 77.53 89.95 75.32 89.95ZM77.56 29.41L41.15 29.41C39.75 29.41 38.61 30.54 38.61 31.93C38.61 33.33 39.75 34.45 41.15 34.45L77.56 34.45C78.96 34.45 80.1 33.33 80.1 31.93C80.1 30.54 78.96 29.41 77.56 29.41ZM75.58 42.5L43.14 42.5C41.73 42.5 40.6 43.63 40.6 45.02C40.6 46.41 41.73 47.54 43.14 47.54L75.58 47.54C76.98 47.54 78.12 46.41 78.12 45.02C78.12 43.63 76.98 42.5 75.58 42.5ZM102.34 18.19C101.37 17.01 99.93 16.33 98.4 16.33L19.27 16.33L17.67 8.64C17.34 7.03 16.23 5.68 14.72 5.03L3.57 0.23C2.28 -0.33 0.79 0.26 0.23 1.54C-0.33 2.81 0.26 4.3 1.55 4.85L12.7 9.65L24.99 68.84C25.47 71.17 27.57 72.86 29.96 72.86L90.82 72.86C92.23 72.86 93.36 71.74 93.36 70.34C93.36 68.95 92.23 67.82 90.82 67.82L29.97 67.82L28.47 60.62L91.29 60.62C93.69 60.62 95.79 58.93 96.27 56.6L103.38 22.39C103.69 20.9 103.31 19.37 102.34 18.19ZM91.29 55.58L27.42 55.58L20.32 21.37L98.4 21.37L91.29 55.58Z" />
		</g>
	</g>
</svg>