<svg xmlns="http://www.w3.org/2000/svg" viewBox="0 0 87 85" width="87" height="85">
	<g id="Search 2">
		<g id="Search">
			<path id="ic-user" d="M70.04 55.19C69.95 55.19 56.87 55.47 54.93 44.99C57.09 43.86 59.08 42.4 60.83 40.62C64.24 37.16 66.44 32.83 67.22 28.14C67.49 27.96 67.72 27.73 67.87 27.46C69.28 24.94 70 22.24 70 19.45C70 8.72 59.19 0 45.91 0C42.43 0 39.06 0.6 35.87 1.78C34.66 1.85 33.47 2.01 32.33 2.26C26.87 3.44 22.43 6.46 19.82 10.78C17.29 14.97 16.79 19.91 18.42 24.68C18.76 25.69 19.2 26.68 19.72 27.62C19.86 27.88 20.07 28.1 20.32 28.28C21.59 35.6 26.24 41.66 32.59 44.97C30.64 55.48 17.57 55.19 17.48 55.19C8.08 55.43 0.52 61.23 0.52 68.32L0.52 83.08C0.52 84.14 1.66 85 3.08 85L25.54 85L61.97 85L84.43 85C85.85 85 86.99 84.14 86.99 83.08L86.99 68.32C86.99 61.23 79.44 55.43 70.04 55.19ZM33.75 5.93C34.68 5.73 35.67 5.61 36.68 5.58C37.05 5.57 37.42 5.49 37.75 5.36C40.34 4.34 43.09 3.83 45.91 3.83C56.37 3.83 64.89 10.83 64.89 19.45C64.89 19.7 64.88 19.96 64.86 20.22C62.83 18.67 60.01 17.72 56.9 17.72L39.46 17.72C38.43 17.72 37.44 17.47 36.62 17.01C35.91 16.62 35.37 16.09 35.04 15.48C34.54 14.54 33.29 13.95 31.94 14.02C30.58 14.08 29.44 14.79 29.1 15.77C28.09 18.68 26.07 21.35 23.31 23.52C20.74 15.61 25.38 7.74 33.75 5.93ZM31.52 39.04C28.2 35.99 26.02 31.88 25.33 27.39C28.55 25.23 31.1 22.56 32.76 19.59C33.02 19.76 33.28 19.92 33.56 20.08C35.27 21.04 37.32 21.54 39.46 21.54L56.9 21.54C59.37 21.54 61.49 22.65 62.44 24.23C62.44 24.25 62.44 24.26 62.44 24.28C62.44 35.08 54.06 43.87 43.76 43.87C39.28 43.87 34.93 42.15 31.52 39.04ZM37.4 46.85C39.43 47.4 41.56 47.7 43.76 47.7C45.94 47.7 48.07 47.41 50.11 46.86C51.05 50.51 53.77 53.7 57.55 55.89L44.12 70.2C44.03 70.29 43.91 70.34 43.76 70.34C43.61 70.34 43.49 70.29 43.4 70.2L29.97 55.88C33.75 53.69 36.47 50.51 37.4 46.85ZM81.87 81.17L61.97 81.17L25.54 81.17L5.64 81.17L5.64 68.32C5.64 63.19 11.22 59.01 18.08 59.01C18.17 59.01 22.29 58.93 25.54 57.83L39.21 72.4C40.25 73.51 41.95 74.17 43.76 74.17L43.76 74.17C45.57 74.17 47.27 73.51 48.31 72.4L61.98 57.83C65.69 59.01 69.34 59.01 69.44 59.01C76.3 59.01 81.87 63.19 81.87 68.32L81.87 81.17L81.87 81.17Z" />
		</g>
	</g>
</svg>